<svg xmlns="http://www.w3.org/2000/svg" width="300" height="150" fill="none">
 <defs>
  <clipPath id="clip0_20_345">
   <rect width="87.3918" height="99.3868" fill="white" id="svg_1"/>
  </clipPath>
  <clipPath id="clip1_20_345">
   <rect width="87.3911" height="99.3868" fill="white" y="41.8105" x="111.601" id="svg_2"/>
  </clipPath>
  <clipPath id="clip2_20_345">
   <rect width="87.3911" height="99.3868" fill="white" y="0" x="223.388" id="svg_3"/>
  </clipPath>
 </defs>
 <g>
  <title>Layer 1</title>
  <g clip-path="url(#clip0_20_345)" id="svg_4">
   <path d="m87.76912,0.27834l-7.965,89.22878l-35.8032,9.9257l-35.70457,-9.912l-7.95677,-89.24248l87.42954,0z" fill="#e44d26" id="svg_5"/>
   <path d="m44.05432,91.84552l28.9308,-8.0205l6.8063,-76.25029l-35.7371,0l0,84.27079z" fill="#f16529" id="svg_6"/>
   <path d="m28.92895,29.46622l15.4838,0l0,-10.9452l-27.4455,0l0.2619,2.9364l2.6903,30.1621l24.4933,0l0,-10.9452l-14.4834,0l-1.0004,-11.2081zm2.4669,27.6261l-10.9874,0l1.5333,17.1857l22.4206,6.2237l0.0504,-0.0137l0,-11.3877l-0.048,0.0127l-12.1896,-3.2914l-0.7793,-8.7293z" fill="#ffff" id="svg_7"/>
   <path d="m44.01662,51.61952l13.4779,0l-1.2708,14.1952l-12.2074,3.2949l0,11.387l22.4384,-6.2186l0.1645,-1.8493l2.5724,-28.8153l0.267,-2.9391l-25.442,0l0,10.9452zm0,-22.18l0,0.0267l26.4379,0l0.2194,-2.46l0.499,-5.5488l0.2614,-2.9364l-27.4177,0l0,10.9188l0,-0.0003z" fill="#ffff" id="svg_8"/>
  </g>
  <g clip-path="url(#clip1_20_345)" id="svg_9">
   <path d="m119.87942,131.62042l-7.958,-89.4515l87.467,0l-7.968,89.4375l-35.819,9.949l-35.722,-9.935z" fill="#264de4" id="svg_10"/>
   <path d="m155.65542,133.95342l28.945,-8.04l6.809,-76.4285l-35.754,0l0,84.4685z" fill="#2965f1" id="svg_11"/>
   <path d="m155.65542,81.89242l14.49,0l0.999,-11.2343l-15.489,0l0,-10.9716l0.039,0l27.418,0l-0.262,2.9426l-2.689,30.2349l-24.506,0l0,-10.9716z" fill="#ffffff" id="svg_12"/>
   <path stroke="null" d="m155.72242,110.38342l-0.05,0.014l-12.194,-3.301l-0.78,-8.7492l-5.927,0l-5.066,0l1.534,17.2262l22.43,6.24l0.053,-0.014l0,-11.416z" fill="#ffffff" id="svg_13"/>
   <path d="m169.21342,92.39802l-1.318,14.6914l-12.212,3.301l0,11.415l22.448,-6.233l0.166,-1.852l1.903,-21.3224l-10.987,0z" fill="#ffffff" id="svg_14"/>
   <path stroke="null" d="m155.69442,59.68652l0,6.8151l0,4.1281l0,0.0284l-26.416,0l-0.035,0l-0.22,-2.4669l-0.5,-5.5621l-0.262,-2.9426l27.433,0z" fill="#ffffff" id="svg_15"/>
   <path d="m155.93858,81.89162l0,6.8151l0,4.1281l0,0.0284l-12.007,0l-0.035,0l-0.22,-2.4669l-0.496,-5.5621l-0.262,-2.9426l13.02,0z" fill="#ffffff" id="svg_16"/>
  </g>
  <g clip-path="url(#clip2_20_345)" id="svg_17">
   <path d="m230.706,88.976l-7.318,-88.80998l87.391,0.17846l-7.737,88.63152l-35.628,10.2448l-36.708,-10.2448z" fill="#fbde34" id="svg_18"/>
   <path d="m267.414,90.6438l0,-82.01978l35.988,0.11898l-6.418,73.3826l-29.57,8.5182z" fill="#efc725" id="svg_19"/>
   <path d="m263.56,18.3628l-9.514,0l0,54.5903l-7.401,-1.3998l0,-7.3487l-8.809,-1.3997l0,16.4471l25.724,6.6488l0,-67.538zm7.137,0l26.339,0l-1.762,10.4631l-14.522,0l0,17.1701l14.522,0l-1.762,34.6557l-22.815,5.2491l0,-10.8481l15.415,-5.2491l0.891,-14.3474l-16.306,2.3446l0,-39.438z" fill="#ffffff" id="svg_20"/>
  </g>
 </g>
</svg>